PathFileType	4	(X/Y/Z)	\\Move.snu.ac.kr\motion\Animal\091204_091205_Bird\091205_bird\Project 2\Capture day 2\Session 1\pigeon_015.trc
DataRate	CameraRate	NumFrames	NumMarkers	Units	OrigDataRate	OrigDataStartFrame	OrigNumFrames
240.0	240.0	15	14	mm	240.0	40	2522
Frame#	Time	14MarkersBird:Head			14MarkersBird:C_back			14MarkersBird:Spine			14MarkersBird:L-shoulder			14MarkersBird:L-elbow			14MarkersBird:L-wrist			14MarkersBird:L-hand			14MarkersBird:R-shoulder			14MarkersBird:R-elbow			14MarkersBird:R-Wrist			14MarkersBird:R-hand			14MarkersBird:C_Tail			14MarkersBird:L-Tale			14MarkersBird:R-Tale			
		X1	Y1	Z1	X2	Y2	Z2	X3	Y3	Z3	X4	Y4	Z4	X5	Y5	Z5	X6	Y6	Z6	X7	Y7	Z7	X8	Y8	Z8	X9	Y9	Z9	X10	Y10	Z10	X11	Y11	Z11	X12	Y12	Z12	X13	Y13	Z13	X14	Y14	Z14	

1156	4.813	-42.31152	1390.05066	-695.64709	10.92358	1366.69641	-724.54919	57.06293	1344.30139	-745.14600	-0.25099	1372.29346	-687.88287	36.51226	1373.93665	-703.20221	18.83846	1397.65479	-671.29578	22.24199	1379.43652	-653.23853	-24.63376	1363.34924	-732.36578	1.66228	1365.97241	-759.22815	-37.85527	1372.33704	-761.11554	-56.22998	1341.96167	-763.38098	138.13423	1247.08252	-751.60187	127.83718	1303.30029	-673.92798	64.89591	1235.28052	-801.14386	
1157	4.817	-44.94938	1391.21191	-695.30640	8.30903	1368.91064	-724.18884	55.08372	1347.28455	-743.82788	-3.29692	1374.89624	-687.72791	32.73341	1379.92310	-709.70587	19.85018	1406.99524	-677.81122	33.54668	1391.39014	-660.96472	-25.72616	1366.82080	-731.45087	4.49107	1374.53296	-754.14386	-32.99320	1383.36865	-764.49078	-48.27309	1355.60596	-778.30951	137.78052	1251.17529	-747.88300	124.67283	1308.67371	-670.29242	63.87977	1237.21802	-797.68884	
1158	4.821	-47.34475	1392.65247	-695.13959	5.85319	1370.86169	-723.86548	53.19515	1350.00342	-742.50940	-6.45016	1377.22766	-687.54187	27.31743	1383.96167	-715.17010	19.18191	1415.15186	-685.08826	41.24611	1404.62500	-672.15308	-26.65959	1370.10974	-730.38562	5.80352	1380.63232	-747.30438	-27.44615	1394.31165	-764.96832	-37.50322	1372.14209	-789.31995	137.45764	1255.11511	-743.66937	121.11619	1313.79822	-666.44403	61.78127	1239.58545	-795.69995	
1159	4.825	-49.51738	1394.37402	-695.12360	3.54786	1372.57800	-723.56787	51.46500	1352.41724	-741.22388	-9.55964	1379.30554	-687.37115	21.65698	1387.22510	-718.54047	17.08281	1422.27454	-692.17548	44.05971	1418.45996	-685.04688	-27.67202	1373.07422	-729.30927	4.18845	1383.99561	-741.26544	-22.43758	1404.70947	-762.87787	-25.32165	1390.55334	-794.66113	137.13675	1258.80151	-739.19763	117.46664	1318.58154	-662.62952	58.89874	1242.34631	-795.26831	
1160	4.829	-51.50910	1396.32446	-695.23853	1.37613	1374.12000	-723.27850	49.99153	1354.48340	-740.02722	-12.46467	1381.15930	-687.24353	16.49082	1391.23096	-719.62592	13.85244	1428.52649	-698.09540	41.95644	1431.55627	-697.85724	-28.91966	1375.61194	-728.42987	0.81720	1387.45728	-737.87714	-19.15455	1414.07581	-759.03253	-13.63708	1409.23059	-793.87231	136.80347	1262.12854	-734.78632	114.01371	1322.93982	-659.03998	55.56646	1245.34924	-796.08850	
1161	4.833	-53.37225	1398.44470	-695.45673	-0.67940	1375.55054	-722.97980	48.81112	1356.13123	-738.93683	-15.04956	1382.90308	-687.14636	11.85128	1395.63599	-719.29578	9.96472	1433.99060	-701.92871	36.05591	1442.60547	-708.79828	-30.45704	1377.70410	-727.85895	-3.36658	1391.28015	-736.28992	-18.47639	1421.93420	-754.68683	-4.60218	1426.63257	-788.08099	136.44022	1265.02710	-730.75195	110.96171	1326.85620	-655.80872	52.18095	1248.41455	-797.60297	
1162	4.838	-55.15395	1400.70544	-695.73816	-2.63614	1376.93225	-722.65393	47.79313	1357.28613	-737.87140	-17.24609	1384.68298	-687.03357	8.18392	1399.94373	-717.90228	6.18606	1438.64954	-702.97357	28.39592	1451.07947	-716.01855	-32.29937	1379.41516	-727.60089	-7.80573	1395.04553	-735.96716	-20.67230	1427.82214	-751.45239	-0.23278	1441.58936	-780.01361	135.98538	1267.51245	-727.34106	108.41737	1330.41479	-653.04950	49.22752	1251.37646	-799.17480	
1163	4.842	-56.89579	1403.09473	-696.04614	-4.51150	1378.32764	-722.28314	46.62206	1357.98853	-736.66394	-19.05848	1386.62280	-686.85870	5.73458	1403.88586	-715.39313	3.38981	1442.33215	-700.89862	21.35770	1457.43140	-717.94604	-34.45631	1380.79871	-727.63281	-11.88309	1398.53589	-736.95294	-25.25860	1431.31262	-750.88214	-1.70517	1453.15906	-773.48364	135.34596	1269.72620	-724.68542	106.37993	1333.73669	-650.84851	47.21144	1254.09167	-800.21356	
1164	4.846	-58.63235	1405.59143	-696.35687	-6.32288	1379.79956	-721.84955	45.12472	1358.64514	-735.31213	-20.60374	1388.79236	-686.61322	4.18793	1407.25952	-711.68994	2.13339	1444.71997	-695.79541	16.82559	1462.45093	-713.75470	-36.91994	1381.88416	-727.97589	-15.29333	1401.42297	-739.23718	-31.21020	1432.07275	-753.70734	-8.68941	1460.37439	-771.96332	134.45137	1271.92261	-722.78735	104.72033	1336.85901	-649.20905	46.49213	1256.50867	-800.30829	
1165	4.850	-60.38889	1408.16064	-696.63483	-8.08770	1381.41040	-721.33569	43.40813	1359.86279	-734.04083	-22.09311	1391.19458	-686.32648	2.93100	1409.86304	-706.89166	2.28581	1445.48596	-688.07593	15.45726	1466.27881	-703.56921	-39.64135	1382.71973	-728.57251	-18.31226	1403.29382	-742.49347	-37.54153	1430.00146	-759.37427	-19.47667	1462.30420	-776.72235	133.31982	1274.39185	-721.53741	103.22009	1339.70715	-648.01971	47.13610	1258.77466	-799.37018	
1166	4.854	-62.19637	1410.76965	-696.79706	-9.82337	1383.22302	-720.72357	41.58995	1361.95044	-733.02411	-23.74378	1393.74902	-686.02155	1.39222	1411.50330	-701.42017	3.01158	1444.39026	-678.32477	16.38148	1468.02808	-688.37561	-42.54143	1383.36951	-729.16370	-21.64884	1403.83105	-746.07349	-43.69693	1425.52429	-766.77161	-32.15691	1458.46667	-786.18542	132.10272	1277.39111	-720.77441	101.66631	1342.20544	-647.09912	48.86879	1261.23267	-797.69006	
1167	4.858	-64.09842	1413.38696	-696.74554	-11.54729	1385.29980	-719.99542	39.67133	1364.79443	-732.29065	-25.67392	1396.28723	-685.66327	-0.76509	1412.14270	-695.96423	3.13857	1441.22461	-667.26062	17.51663	1466.36865	-669.83667	-45.56155	1383.93640	-729.44904	-25.93337	1402.98267	-749.20074	-49.73268	1419.23083	-774.58411	-45.77251	1449.16211	-797.05267	131.01311	1281.09241	-720.35376	99.90897	1344.38123	-646.28937	51.14750	1264.27954	-795.85138	
1168	4.863	-66.14838	1415.97327	-696.44611	-13.27688	1387.70361	-719.13367	37.67109	1368.15869	-731.82153	-27.86107	1398.62012	-685.15967	-2.97385	1412.70544	-691.45868	1.57089	1435.82251	-655.73694	16.52991	1460.43958	-650.03815	-48.66357	1384.56616	-729.31610	-31.25283	1401.04651	-751.13635	-56.84797	1410.85681	-779.79877	-60.18594	1435.34583	-805.90594	130.16835	1285.51367	-720.16681	97.84692	1346.31128	-645.50525	53.32798	1268.18445	-794.50671	
1169	4.867	-68.36163	1418.48950	-695.94629	-15.02910	1390.49548	-718.12079	35.63703	1371.89868	-731.53320	-30.20300	1400.65784	-684.42035	-3.97594	1414.20374	-687.27271	-2.46551	1428.19299	-644.74377	11.77415	1450.17078	-631.16815	-51.78245	1385.40198	-728.81409	-36.62130	1399.19446	-751.51477	-65.26018	1401.80798	-781.79169	-75.16320	1418.27209	-810.16968	129.48006	1290.44348	-720.12488	95.40378	1347.99951	-644.72070	54.84104	1272.98474	-794.14337	
1170	4.871	-70.69277	1420.89905	-695.30682	-16.81171	1393.70776	-716.94751	33.60569	1375.99561	-731.17303	-32.61884	1402.48303	-683.40125	-5.38397	1413.61145	-679.63116	-9.27139	1418.68164	-635.44751	2.64519	1436.07556	-615.29413	-54.76723	1386.60181	-727.96631	-41.26192	1398.29187	-751.26556	-74.16191	1392.64294	-780.29327	-89.85635	1399.36450	-808.33148	128.67178	1295.45154	-720.16187	92.57443	1349.35413	-643.96210	55.28619	1278.52991	-794.95978	
